<?xml version="1.0" encoding="utf-8"?>
<!-- Generator: Adobe Illustrator 23.0.3, SVG Export Plug-In . SVG Version: 6.00 Build 0)  -->
<svg version="1.1" id="Layer_1" xmlns="http://www.w3.org/2000/svg" xmlns:xlink="http://www.w3.org/1999/xlink" x="0px" y="0px"
	 viewBox="0 0 100 100.2" style="enable-background:new 0 0 100 100.2;" xml:space="preserve">
<g>
	<path d="M56.7,46.5L56.7,46.5v-6.7H43.3v6.7l0,0c0,3.7,6.7,8.5,6.7,8.5S56.7,50.2,56.7,46.5z"/>
	<path d="M82.2,60.2C82.1,53,80.5,13,59.3,10.3C59.2,7.4,55.1,5,50,5s-9.2,2.4-9.3,5.3C19.5,13,17.9,53,17.8,60.2
		C24,65,36.3,68.3,50,68.3S75.9,65,82.2,60.2z M51.3,16.5v0.9h-0.8v0.8h-0.9v-0.8h-0.8v-0.9h0.8v-0.8h0.9v0.8H51.3z M51.3,19.7
		c0,0.7-0.6,1.3-1.3,1.3s-1.3-0.6-1.3-1.3c0-0.7,0.6-1.3,1.3-1.3S51.3,19,51.3,19.7z M44.4,20.6c1.4-0.4,4.1,0.8,5.3,0.8h0.7
		c1.1,0,3.9-1.2,5.3-0.8c1.7,0.5,1.1,2.9,1.1,3c-0.1,0.1-1.5,6.2-1.5,6.3H44.9c-0.1-0.1-1.5-6.2-1.5-6.3
		C43.3,23.4,42.7,21.1,44.4,20.6z M34.8,61.1v-8.9l-6.3-6.3l6.3-6.3v-8.9h30.3v8.9l6.3,6.3l-6.3,6.3v8.9h-8.9L50,67.3L43.7,61
		L34.8,61.1L34.8,61.1z"/>
	<path d="M65,46.2c0-8.3-6.7-15-15-15s-15,6.7-15,15s6.7,15,15,15S65,54.5,65,46.2z M39.6,46.2c0-5.7,4.7-10.4,10.4-10.4
		s10.4,4.7,10.4,10.4S55.7,56.6,50,56.6S39.6,51.9,39.6,46.2z"/>
	<path d="M16.2,62.4L12,65.2c0,0-6.5,14.9,35.9,29.4c0,0,0.5,0.4,2,0.4s2-0.4,2-0.4C94.5,80.1,88,65.2,88,65.2l-4.1-2.8
		C77,67.6,64.6,71.1,50,71.1S23,67.6,16.2,62.4z"/>
</g>
</svg>